{
  "accessors": [
    {
      "bufferView": 2,
      "componentType": 5126,
      "count": 490,
      "max": [
        660.75,
        55.0625,
        495.56298828125
      ],
      "min": [
        -2.8421701298887714e-13,
        -9.0949502703358e-13,
        0.0
      ],
      "type": "VEC3"
    },
    {
      "bufferView": 2,
      "byteOffset": 5880,
      "componentType": 5126,
      "count": 490,
      "max": [
        1.0,
        1.0,
        1.0
      ],
      "min": [
        -1.0,
        -1.0,
        -1.0
      ],
      "type": "VEC3"
    },
    {
      "bufferView": 1,
      "componentType": 5126,
      "count": 490,
      "max": [
        660.75,
        495.56298828125
      ],
      "min": [
        -660.75,
        -9.0949502703358e-13
      ],
      "type": "VEC2"
    },
    {
      "bufferView": 0,
      "componentType": 5125,
      "count": 984,
      "type": "SCALAR"
    },
    {
      "bufferView": 2,
      "byteOffset": 11760,
      "componentType": 5126,
      "count": 262,
      "max": [
        605.68701171875,
        55.0625,
        770.875
      ],
      "min": [
        55.0625,
        -9.0949502703358e-13,
        550.625
      ],
      "type": "VEC3"
    },
    {
      "bufferView": 2,
      "byteOffset": 14904,
      "componentType": 5126,
      "count": 262,
      "max": [
        1.0,
        1.0,
        1.0
      ],
      "min": [
        -1.0,
        -1.0,
        -1.0
      ],
      "type": "VEC3"
    },
    {
      "bufferView": 1,
      "byteOffset": 3920,
      "componentType": 5126,
      "count": 262,
      "max": [
        605.68701171875,
        770.875
      ],
      "min": [
        -605.68701171875,
        -9.0949502703358e-13
      ],
      "type": "VEC2"
    },
    {
      "bufferView": 0,
      "byteOffset": 3936,
      "componentType": 5125,
      "count": 468,
      "type": "SCALAR"
    },
    {
      "bufferView": 2,
      "byteOffset": 18048,
      "componentType": 5126,
      "count": 557,
      "max": [
        660.75,
        55.0625,
        770.875
      ],
      "min": [
        -2.8421701298887714e-13,
        -9.0949502703358e-13,
        165.18800354003906
      ],
      "type": "VEC3"
    },
    {
      "bufferView": 2,
      "byteOffset": 24732,
      "componentType": 5126,
      "count": 557,
      "max": [
        1.0,
        1.0,
        1.0
      ],
      "min": [
        -1.0,
        -1.0,
        -1.0
      ],
      "type": "VEC3"
    },
    {
      "bufferView": 1,
      "byteOffset": 6016,
      "componentType": 5126,
      "count": 557,
      "max": [
        660.75,
        770.875
      ],
      "min": [
        -660.75,
        -9.0949502703358e-13
      ],
      "type": "VEC2"
    },
    {
      "bufferView": 0,
      "byteOffset": 5808,
      "componentType": 5125,
      "count": 1080,
      "type": "SCALAR"
    },
    {
      "bufferView": 2,
      "byteOffset": 31416,
      "componentType": 5126,
      "count": 48,
      "max": [
        440.5,
        55.0625,
        330.375
      ],
      "min": [
        220.25,
        -9.0949502703358e-13,
        275.31298828125
      ],
      "type": "VEC3"
    },
    {
      "bufferView": 2,
      "byteOffset": 31992,
      "componentType": 5126,
      "count": 48,
      "max": [
        1.0,
        1.0,
        1.0
      ],
      "min": [
        -1.0,
        -1.0,
        -1.0
      ],
      "type": "VEC3"
    },
    {
      "bufferView": 1,
      "byteOffset": 10472,
      "componentType": 5126,
      "count": 48,
      "max": [
        440.5,
        330.375
      ],
      "min": [
        -440.5,
        -9.0949502703358e-13
      ],
      "type": "VEC2"
    },
    {
      "bufferView": 0,
      "byteOffset": 10128,
      "componentType": 5125,
      "count": 72,
      "type": "SCALAR"
    },
    {
      "bufferView": 2,
      "byteOffset": 32568,
      "componentType": 5126,
      "count": 471,
      "max": [
        605.68798828125,
        55.0625,
        881.0
      ],
      "min": [
        110.125,
        -9.0949502703358e-13,
        110.125
      ],
      "type": "VEC3"
    },
    {
      "bufferView": 2,
      "byteOffset": 38220,
      "componentType": 5126,
      "count": 471,
      "max": [
        1.0,
        1.0,
        1.0
      ],
      "min": [
        -1.0,
        -1.0,
        -1.0
      ],
      "type": "VEC3"
    },
    {
      "bufferView": 1,
      "byteOffset": 10856,
      "componentType": 5126,
      "count": 471,
      "max": [
        605.68798828125,
        881.0
      ],
      "min": [
        -605.68798828125,
        -9.0949502703358e-13
      ],
      "type": "VEC2"
    },
    {
      "bufferView": 0,
      "byteOffset": 10416,
      "componentType": 5125,
      "count": 1068,
      "type": "SCALAR"
    }
  ],
  "asset": {
    "extras": {
      "author": "Alex_F (https://sketchfab.com/Alex_F)",
      "license": "CC-BY-4.0 (http://creativecommons.org/licenses/by/4.0/)",
      "source": "https://sketchfab.com/3d-models/pixel-art-mario-7a27cbf9e7594ee7966d64593592d28b",
      "title": "Pixel Art (Mario)"
    },
    "generator": "Sketchfab-12.66.0",
    "version": "2.0"
  },
  "bufferViews": [
    {
      "buffer": 0,
      "byteLength": 14688,
      "name": "floatBufferViews",
      "target": 34963
    },
    {
      "buffer": 0,
      "byteLength": 14624,
      "byteOffset": 14688,
      "byteStride": 8,
      "name": "floatBufferViews",
      "target": 34962
    },
    {
      "buffer": 0,
      "byteLength": 43872,
      "byteOffset": 29312,
      "byteStride": 12,
      "name": "floatBufferViews",
      "target": 34962
    }
  ],
  "buffers": [
    {
      "byteLength": 73184,
      "uri": "scene.bin"
    }
  ],
  "materials": [
    {
      "doubleSided": true,
      "name": "material",
      "pbrMetallicRoughness": {
        "baseColorFactor": [
          0.05098,
          0.458824,
          1.0,
          1.0
        ],
        "metallicFactor": 0.0,
        "roughnessFactor": 0.6
      }
    },
    {
      "doubleSided": true,
      "name": "material_1",
      "pbrMetallicRoughness": {
        "baseColorFactor": [
          0.498039,
          0.415686,
          0.298039,
          1.0
        ],
        "metallicFactor": 0.0,
        "roughnessFactor": 0.6
      }
    },
    {
      "doubleSided": true,
      "name": "material_2",
      "pbrMetallicRoughness": {
        "baseColorFactor": [
          1.0,
          0.831373,
          0.596078,
          1.0
        ],
        "metallicFactor": 0.0,
        "roughnessFactor": 0.6
      }
    },
    {
      "doubleSided": true,
      "name": "material_3",
      "pbrMetallicRoughness": {
        "baseColorFactor": [
          0.894118,
          0.772549,
          0.0,
          1.0
        ],
        "metallicFactor": 0.0,
        "roughnessFactor": 0.6
      }
    },
    {
      "doubleSided": true,
      "name": "material_4",
      "pbrMetallicRoughness": {
        "baseColorFactor": [
          1.0,
          0.109804,
          0.207843,
          1.0
        ],
        "metallicFactor": 0.0,
        "roughnessFactor": 0.6
      }
    }
  ],
  "meshes": [
    {
      "name": "Object_0",
      "primitives": [
        {
          "attributes": {
            "NORMAL": 1,
            "POSITION": 0,
            "TEXCOORD_0": 2
          },
          "indices": 3,
          "material": 0,
          "mode": 4
        }
      ]
    },
    {
      "name": "Object_1",
      "primitives": [
        {
          "attributes": {
            "NORMAL": 5,
            "POSITION": 4,
            "TEXCOORD_0": 6
          },
          "indices": 7,
          "material": 1,
          "mode": 4
        }
      ]
    },
    {
      "name": "Object_2",
      "primitives": [
        {
          "attributes": {
            "NORMAL": 9,
            "POSITION": 8,
            "TEXCOORD_0": 10
          },
          "indices": 11,
          "material": 2,
          "mode": 4
        }
      ]
    },
    {
      "name": "Object_3",
      "primitives": [
        {
          "attributes": {
            "NORMAL": 13,
            "POSITION": 12,
            "TEXCOORD_0": 14
          },
          "indices": 15,
          "material": 3,
          "mode": 4
        }
      ]
    },
    {
      "name": "Object_4",
      "primitives": [
        {
          "attributes": {
            "NORMAL": 17,
            "POSITION": 16,
            "TEXCOORD_0": 18
          },
          "indices": 19,
          "material": 4,
          "mode": 4
        }
      ]
    }
  ],
  "nodes": [
    {
      "children": [
        1
      ],
      "matrix": [
        1.0,
        0.0,
        0.0,
        0.0,
        0.0,
        2.220446049250313e-16,
        -1.0,
        0.0,
        0.0,
        1.0,
        2.220446049250313e-16,
        0.0,
        0.0,
        0.0,
        0.0,
        1.0
      ],
      "name": "Sketchfab_model"
    },
    {
      "children": [
        2,
        3,
        4,
        5,
        6
      ],
      "name": "pixel art (mario).obj.cleaner.gles"
    },
    {
      "mesh": 0,
      "name": "Object_2"
    },
    {
      "mesh": 1,
      "name": "Object_3"
    },
    {
      "mesh": 2,
      "name": "Object_4"
    },
    {
      "mesh": 3,
      "name": "Object_5"
    },
    {
      "mesh": 4,
      "name": "Object_6"
    }
  ],
  "scene": 0,
  "scenes": [
    {
      "name": "Sketchfab_Scene",
      "nodes": [
        0
      ]
    }
  ]
}
